<svg aria-hidden="true" style="position: absolute; width: 0; height: 0; overflow: hidden;" version="1.1" xmlns="http://www.w3.org/2000/svg" xmlns:xlink="http://www.w3.org/1999/xlink">
<defs>
<symbol id="icon-heart-hands" viewBox="0 0 32 32">
<path fill="#020102" style="fill: var(--color2, #020102)" d="M2.834 16.6c-0.625-1.049-1.032-2.166-1.226-3.361-0.55-3.398 0.715-6.925 3.304-9.176 1.077-0.936 2.299-1.608 3.695-1.933 2.394-0.558 4.522-0.014 6.372 1.597 0.355 0.309 0.665 0.669 0.996 1.005 0.021 0.022 0.040 0.046 0.070 0.081 0.048-0.050 0.091-0.092 0.13-0.136 0.372-0.417 0.759-0.818 1.195-1.171 0.945-0.763 2.008-1.273 3.206-1.486 0.669-0.119 1.342-0.136 2.017-0.052 1.862 0.23 3.452 1.040 4.818 2.3 1.534 1.415 2.493 3.166 2.959 5.193 0.194 0.845 0.275 1.703 0.24 2.569-0.087 2.115-0.787 4.003-2.106 5.66-0.114 0.143-0.225 0.288-0.343 0.427-0.060 0.070-0.084 0.139-0.076 0.233 0.116 1.426-0.874 2.508-1.925 2.861-0.286 0.096-0.578 0.152-0.88 0.148-0.050-0.001-0.1-0-0.15-0-0.019 1.753-1.439 2.801-2.971 2.716-0.003 0.064-0.006 0.128-0.010 0.192-0.063 1.139-0.846 2.216-1.983 2.55-0.402 0.118-0.807 0.144-1.218 0.059-0.044-0.009-0.089-0.015-0.133-0.022-0.416 0.494-0.906 0.907-1.362 1.354-0.453 0.444-0.908 0.887-1.375 1.316-1.345 1.232-3.499 0.581-3.938-1.187-0.066-0.267-0.093-0.54-0.054-0.815 0.007-0.049 0.007-0.099 0.011-0.157-0.789 0.069-1.474-0.15-2.022-0.719-0.55-0.571-0.742-1.264-0.638-2.061-0.786 0.071-1.478-0.145-2.029-0.72-0.547-0.571-0.741-1.264-0.636-2.057-0.925 0.070-1.693-0.224-2.238-0.978-0.541-0.749-0.583-1.565-0.233-2.428-0.596-0.503-1.057-1.125-1.467-1.801zM25.989 20.282c0.327-0.145 0.6-0.357 0.815-0.644 0.265-0.355 0.386-0.755 0.361-1.197-0.007-0.118-0.041-0.221-0.127-0.315-0.736-0.792-1.466-1.589-2.198-2.385-1.003-1.091-2.006-2.183-3.009-3.274-0.862-0.938-1.725-1.875-2.588-2.813-0.192-0.209-0.384-0.418-0.579-0.629-0.022 0.018-0.039 0.029-0.052 0.044-0.747 0.829-1.495 1.659-2.241 2.489-0.227 0.253-0.448 0.512-0.74 0.696-0.538 0.338-1.116 0.469-1.745 0.357-0.445-0.079-0.81-0.305-1.131-0.616-0.879-0.85-0.966-2.212-0.196-3.163 0.125-0.154 0.256-0.302 0.385-0.452 7.704-9.062 8.383-9.844 9.062-10.626l-6.981 8.218c0.132-0.153 0.265-0.305 0.391-0.45-0.004-0.020-0.003-0.026-0.006-0.029-0.043-0.050-0.085-0.1-0.129-0.149-0.395-0.438-0.799-0.864-1.269-1.225-1.246-0.956-2.652-1.376-4.216-1.252-0.779 0.062-1.526 0.268-2.238 0.591-1.57 0.712-2.802 1.813-3.719 3.267-0.868 1.375-1.333 2.883-1.423 4.504-0.030 0.547 0 1.094 0.075 1.639 0.123 0.897 0.375 1.754 0.773 2.566 0.388 0.793 0.853 1.534 1.509 2.14 0.028 0.026 0.060 0.049 0.093 0.077 0.026-0.022 0.046-0.037 0.064-0.054 0.744-0.713 1.486-1.428 2.232-2.139 0.649-0.618 1.416-0.835 2.286-0.619 1.226 0.304 1.897 1.474 1.772 2.538-0.006 0.053-0.001 0.108-0.001 0.176 0.781-0.068 1.462 0.147 2.009 0.713 0.551 0.571 0.742 1.263 0.643 2.055 0.054 0 0.103 0.001 0.152-0 0.951-0.027 1.697 0.346 2.201 1.158 0.27 0.434 0.378 0.914 0.326 1.426-0.007 0.068-0.007 0.137-0.010 0.205 0.815-0.068 1.507 0.161 2.054 0.753 0.55 0.595 0.722 1.309 0.592 2.099 0.025 0.009 0.039 0.018 0.053 0.019 0.497 0.054 0.935-0.086 1.309-0.414 0.47-0.413 0.694-0.937 0.682-1.563-0.003-0.158-0.026-0.301-0.167-0.4-0.037-0.026-0.066-0.063-0.099-0.095-0.911-0.876-1.822-1.752-2.733-2.628-0.669-0.644-1.338-1.289-2.007-1.934-0.216-0.208-0.434-0.413-0.645-0.626-0.188-0.189-0.187-0.478-0.009-0.657s0.449-0.182 0.646-0.009c0.068 0.060 0.134 0.125 0.2 0.188 0.771 0.743 1.542 1.487 2.313 2.23 1.009 0.972 2.020 1.942 3.027 2.916 0.078 0.075 0.162 0.114 0.265 0.129 0.269 0.039 0.537 0.032 0.801-0.032 0.495-0.119 0.894-0.377 1.151-0.828 0.179-0.314 0.228-0.656 0.218-1.012-0.005-0.161-0.053-0.281-0.176-0.398-1-0.952-1.992-1.912-2.987-2.87-0.812-0.782-1.624-1.563-2.435-2.345-0.040-0.039-0.078-0.081-0.108-0.127-0.096-0.148-0.106-0.305-0.022-0.461 0.086-0.16 0.222-0.243 0.407-0.246 0.155-0.002 0.269 0.073 0.374 0.174 0.8 0.771 1.602 1.542 2.402 2.313 1.027 0.99 2.054 1.98 3.078 2.973 0.094 0.091 0.196 0.134 0.321 0.151 0.32 0.043 0.626 0.001 0.945-0.129zM29.437 9.54c-0.004-0.020-0.008-0.040-0.013-0.059-0.437-1.727-1.268-3.229-2.567-4.46-0.905-0.857-1.943-1.493-3.135-1.867-0.969-0.304-1.957-0.391-2.959-0.22-1.242 0.211-2.311 0.779-3.209 1.653-0.457 0.445-0.883 0.924-1.306 1.403-0.726 0.821-1.44 1.653-2.158 2.481-0.276 0.318-0.556 0.633-0.821 0.96-0.29 0.357-0.371 0.767-0.269 1.215 0.077 0.337 0.274 0.594 0.533 0.811 0.211 0.176 0.454 0.266 0.726 0.272 0.475 0.010 0.87-0.174 1.186-0.523 0.878-0.971 1.754-1.945 2.629-2.918 0.036-0.040 0.075-0.087 0.091-0.137 0.108-0.34 0.548-0.445 0.821-0.143 0.698 0.771 1.406 1.534 2.11 2.3 0.962 1.046 1.923 2.092 2.885 3.138 1.144 1.244 2.288 2.488 3.432 3.731 0.053 0.058 0.108 0.115 0.163 0.173 0.024-0.022 0.037-0.031 0.046-0.043 1.503-1.811 2.189-3.891 2.048-6.241-0.030-0.507-0.112-1.006-0.232-1.525zM10.11 17.89c0.186-0.316 0.244-0.659 0.174-1.013-0.111-0.557-0.444-0.945-0.986-1.117-0.545-0.173-1.043-0.055-1.465 0.339-0.267 0.249-0.529 0.505-0.793 0.757-0.528 0.506-1.059 1.008-1.582 1.519-0.393 0.384-0.539 0.855-0.412 1.391 0.261 1.106 1.601 1.505 2.428 0.724 0.801-0.756 1.592-1.522 2.385-2.287 0.090-0.087 0.16-0.196 0.251-0.313zM13.344 26.824c-0.295 0.353-0.405 0.762-0.32 1.209 0.107 0.565 0.444 0.953 0.994 1.126 0.555 0.175 1.052 0.045 1.474-0.355 0.442-0.419 0.881-0.842 1.321-1.263 0.345-0.33 0.692-0.657 1.032-0.992 0.396-0.39 0.544-0.864 0.415-1.404s-0.473-0.905-1.009-1.058c-0.539-0.154-1.024-0.031-1.434 0.357-0.431 0.408-0.859 0.82-1.287 1.232-0.391 0.377-0.781 0.755-1.186 1.149zM9.124 23.671c0.406 0.002 0.75-0.146 1.042-0.426 0.784-0.752 1.571-1.5 2.351-2.255 0.386-0.373 0.53-0.834 0.426-1.36-0.138-0.695-0.754-1.194-1.5-1.164-0.367 0.015-0.688 0.158-0.954 0.416-0.189 0.184-0.381 0.366-0.571 0.548-0.604 0.58-1.214 1.153-1.809 1.742-0.453 0.448-0.561 0.997-0.33 1.582 0.23 0.582 0.689 0.882 1.346 0.916zM14.676 24.256c0.164-0.159 0.328-0.318 0.493-0.476 0.318-0.304 0.47-0.673 0.465-1.116-0.010-0.802-0.713-1.461-1.514-1.417-0.389 0.021-0.715 0.168-0.992 0.436-0.35 0.339-0.703 0.675-1.054 1.012-0.44 0.422-0.886 0.836-1.317 1.267-0.633 0.632-0.547 1.673 0.171 2.205 0.545 0.404 1.367 0.388 1.921-0.157 0.597-0.587 1.208-1.161 1.828-1.755z"></path>
<path fill="#00f" style="fill: var(--color3, #00f)" d="M25.978 20.286c-0.308 0.127-0.615 0.169-0.934 0.126-0.125-0.017-0.227-0.060-0.321-0.151-1.024-0.993-2.051-1.983-3.078-2.973-0.8-0.771-1.602-1.542-2.402-2.313-0.106-0.102-0.219-0.177-0.374-0.174-0.186 0.003-0.321 0.086-0.407 0.246-0.084 0.156-0.074 0.313 0.022 0.461 0.030 0.046 0.068 0.089 0.108 0.127 0.811 0.782 1.623 1.564 2.435 2.345 0.995 0.958 1.987 1.918 2.987 2.87 0.122 0.116 0.171 0.237 0.176 0.398 0.011 0.357-0.039 0.698-0.218 1.012-0.257 0.451-0.656 0.709-1.151 0.828-0.264 0.064-0.532 0.071-0.801 0.032-0.103-0.015-0.187-0.053-0.265-0.129-1.007-0.974-2.018-1.944-3.027-2.916-0.771-0.743-1.542-1.487-2.313-2.23-0.066-0.063-0.131-0.127-0.2-0.188-0.197-0.174-0.468-0.169-0.646 0.009s-0.178 0.467 0.009 0.657c0.211 0.213 0.429 0.418 0.645 0.626 0.669 0.645 1.338 1.289 2.007 1.934 0.911 0.876 1.822 1.752 2.733 2.628 0.033 0.032 0.062 0.069 0.099 0.095 0.141 0.099 0.164 0.243 0.167 0.4 0.012 0.626-0.212 1.15-0.682 1.563-0.374 0.328-0.812 0.468-1.309 0.414-0.014-0.002-0.028-0.010-0.053-0.019 0.13-0.79-0.042-1.505-0.592-2.099-0.546-0.591-1.238-0.82-2.054-0.753 0.003-0.068 0.003-0.137 0.010-0.205 0.052-0.512-0.056-0.993-0.326-1.426-0.505-0.812-1.25-1.185-2.201-1.158-0.049 0.001-0.097 0-0.152 0 0.099-0.792-0.092-1.484-0.643-2.055-0.547-0.566-1.228-0.78-2.009-0.713 0-0.068-0.005-0.123 0.001-0.176 0.125-1.065-0.546-2.234-1.772-2.538-0.869-0.216-1.637 0.001-2.286 0.619-0.746 0.711-1.488 1.426-2.232 2.139-0.018 0.017-0.038 0.032-0.064 0.054-0.033-0.027-0.064-0.050-0.093-0.077-0.655-0.606-1.12-1.347-1.509-2.14-0.397-0.812-0.65-1.669-0.773-2.566-0.075-0.545-0.105-1.091-0.075-1.639 0.090-1.621 0.555-3.128 1.423-4.504 0.917-1.454 2.149-2.555 3.719-3.267 0.712-0.323 1.459-0.529 2.238-0.591 1.563-0.124 2.97 0.296 4.216 1.252 0.47 0.361 0.875 0.787 1.269 1.225 0.044 0.049 0.087 0.099 0.129 0.149 0.003 0.003 0.002 0.009 0.006 0.029-0.126 0.145-0.259 0.297-0.391 0.45 6.302-7.436 5.624-6.654 4.945-5.872l-7.026 8.279c-0.129 0.15-0.261 0.298-0.385 0.452-0.77 0.951-0.683 2.314 0.196 3.163 0.322 0.311 0.686 0.536 1.131 0.616 0.629 0.112 1.207-0.019 1.745-0.357 0.293-0.184 0.513-0.443 0.74-0.696 0.747-0.83 1.494-1.66 2.241-2.489 0.013-0.014 0.030-0.025 0.052-0.043 0.195 0.212 0.387 0.42 0.579 0.629 0.863 0.938 1.726 1.875 2.588 2.813 1.003 1.091 2.006 2.183 3.009 3.274 0.732 0.796 1.463 1.592 2.198 2.385 0.087 0.094 0.121 0.197 0.127 0.315 0.025 0.442-0.096 0.842-0.361 1.197-0.214 0.287-0.488 0.499-0.826 0.648z"></path>
<path fill="#fef200" style="fill: var(--color4, #fef200)" d="M29.442 9.552c0.116 0.507 0.198 1.006 0.228 1.513 0.141 2.35-0.545 4.43-2.048 6.241-0.010 0.012-0.022 0.021-0.046 0.043-0.055-0.058-0.109-0.115-0.163-0.173-1.144-1.244-2.288-2.488-3.432-3.732-0.962-1.046-1.923-2.092-2.885-3.138-0.704-0.766-1.412-1.528-2.11-2.3-0.273-0.302-0.713-0.197-0.821 0.143-0.016 0.050-0.054 0.097-0.091 0.137-0.875 0.974-1.75 1.947-2.629 2.918-0.316 0.349-0.71 0.533-1.186 0.523-0.272-0.006-0.515-0.096-0.726-0.272-0.259-0.217-0.456-0.473-0.533-0.811-0.102-0.448-0.022-0.859 0.269-1.215 0.266-0.327 0.546-0.642 0.821-0.96 0.718-0.828 1.432-1.66 2.158-2.481 0.423-0.478 0.849-0.958 1.306-1.403 0.898-0.874 1.967-1.442 3.209-1.653 1.002-0.17 1.99-0.084 2.959 0.22 1.192 0.374 2.23 1.009 3.135 1.867 1.299 1.231 2.129 2.733 2.567 4.46 0.005 0.020 0.009 0.040 0.017 0.071z"></path>
<path fill="#fef100" style="fill: var(--color5, #fef100)" d="M10.104 17.899c-0.085 0.108-0.155 0.217-0.245 0.304-0.793 0.765-1.584 1.531-2.385 2.287-0.827 0.781-2.167 0.382-2.428-0.724-0.127-0.535 0.020-1.007 0.412-1.391 0.523-0.511 1.054-1.013 1.582-1.519 0.264-0.253 0.526-0.508 0.793-0.757 0.422-0.394 0.919-0.512 1.465-0.339 0.542 0.172 0.875 0.559 0.986 1.117 0.070 0.353 0.012 0.697-0.18 1.022zM13.351 26.816c0.398-0.386 0.787-0.764 1.178-1.141 0.428-0.412 0.856-0.824 1.287-1.232 0.41-0.387 0.895-0.511 1.434-0.357 0.536 0.153 0.88 0.518 1.009 1.058s-0.019 1.015-0.415 1.404c-0.34 0.335-0.688 0.662-1.032 0.992-0.44 0.421-0.879 0.844-1.321 1.263-0.422 0.4-0.919 0.53-1.474 0.355-0.55-0.173-0.887-0.561-0.994-1.126-0.084-0.446 0.025-0.856 0.327-1.217zM9.11 23.671c-0.642-0.034-1.102-0.334-1.332-0.916-0.231-0.584-0.123-1.133 0.33-1.582 0.595-0.589 1.206-1.162 1.809-1.742 0.19-0.183 0.381-0.365 0.571-0.548 0.266-0.258 0.588-0.401 0.954-0.416 0.746-0.031 1.362 0.469 1.5 1.164 0.104 0.526-0.040 0.987-0.426 1.36-0.78 0.755-1.568 1.503-2.351 2.255-0.292 0.28-0.636 0.427-1.056 0.426zM14.668 24.264c-0.612 0.587-1.223 1.161-1.82 1.748-0.554 0.545-1.376 0.561-1.921 0.157-0.717-0.531-0.803-1.573-0.171-2.205 0.431-0.43 0.878-0.845 1.317-1.267 0.352-0.337 0.704-0.674 1.055-1.012 0.277-0.268 0.603-0.415 0.992-0.436 0.801-0.044 1.504 0.614 1.514 1.417 0.005 0.443-0.147 0.811-0.465 1.116-0.165 0.158-0.329 0.317-0.501 0.483z"></path>
</symbol>
</defs>
</svg>